<?xml version="1.0" encoding="UTF-8" standalone="no"?><!DOCTYPE svg PUBLIC "-//W3C//DTD SVG 1.1//EN" "http://www.w3.org/Graphics/SVG/1.1/DTD/svg11.dtd"><svg width="100%" height="100%" viewBox="0 0 145 54" version="1.1" xmlns="http://www.w3.org/2000/svg" xmlns:xlink="http://www.w3.org/1999/xlink" xml:space="preserve" style="fill-rule:evenodd;clip-rule:evenodd;stroke-linejoin:round;stroke-miterlimit:1.41421;"><g id="logo"><path d="M15.46,35.465l0,17.556l-15.044,0l0,-17.556l15.044,0Zm7.416,0l21.666,0l0,3.858c0,1.309 -0.181,2.363 -0.545,3.163c-0.363,0.8 -0.8,1.43 -1.309,1.89c-0.509,0.461 -1.054,0.776 -1.635,0.945c-0.582,0.17 -1.091,0.255 -1.527,0.255c-0.776,0 -1.515,-0.182 -2.218,-0.545c-0.703,-0.364 -1.321,-0.812 -1.854,-1.346l-5.816,4.654c0.921,1.018 2.169,2.048 3.744,3.09c1.575,1.042 3.551,1.563 5.926,1.563c1.987,0 3.756,-0.339 5.307,-1.018c1.551,-0.679 2.872,-1.6 3.963,-2.763c1.09,-1.163 1.926,-2.508 2.508,-4.035c0.582,-1.527 0.872,-3.138 0.872,-4.835l0,-4.876l7.435,0l3.599,13.198l7.968,4.358l-48.084,0l0,-17.556Z" style="fill:#fecd2f;"/><path d="M15.46,35.465l-15.044,0l0,-17.556l15.044,0l0,17.556Zm29.082,-17.556l0,17.556l-21.666,0l0,-17.556l21.666,0Zm14.851,17.556l-7.435,0l0,-17.556l7.435,0l0,17.556Z" style="fill:#da0a16;"/><path d="M6.881,7.769l8.579,0l0,10.154l-15.044,0l0,-17.57l6.465,0l0,7.416Zm37.661,10.154l-21.666,0l0,-10.154l8.579,0l0,-7.416l39.505,0l-6.442,5.567l-5.125,12.003l-7.435,0l0,-17.57l-7.416,0l0,17.57Z"/><g><path d="M58.502,13.004c0,-2.085 0.363,-3.926 1.09,-5.526c0.728,-1.599 1.685,-2.92 2.872,-3.962c1.188,-1.043 2.521,-1.83 3.999,-2.363c1.479,-0.534 2.969,-0.8 4.472,-0.8c1.502,0 2.993,0.266 4.471,0.8c1.478,0.533 2.811,1.32 3.999,2.363c1.187,1.042 2.145,2.363 2.872,3.962c0.727,1.6 1.09,3.441 1.09,5.526l0,2.617l-7.416,0l0,-2.617c0,-1.794 -0.497,-3.115 -1.49,-3.963c-0.994,-0.848 -2.169,-1.272 -3.526,-1.272c-1.358,0 -2.533,0.424 -3.527,1.272c-0.993,0.848 -1.49,2.169 -1.49,3.963l0,27.337c0,1.793 0.497,3.114 1.49,3.962c0.994,0.849 2.169,1.273 3.527,1.273c1.357,0 2.532,-0.424 3.526,-1.273c0.993,-0.848 1.49,-2.169 1.49,-3.962l0,-9.743l-5.889,0l0,-6.543l13.305,0l0,16.286c0,2.133 -0.363,3.987 -1.09,5.562c-0.727,1.575 -1.685,2.884 -2.872,3.926c-1.188,1.042 -2.521,1.83 -3.999,2.363c-1.478,0.533 -2.969,0.8 -4.471,0.8c-1.503,0 -2.993,-0.267 -4.472,-0.8c-1.478,-0.533 -2.811,-1.321 -3.999,-2.363c-1.187,-1.042 -2.144,-2.351 -2.872,-3.926c-0.727,-1.575 -1.09,-3.429 -1.09,-5.562l0,-27.337Z" style="fill-rule:nonzero;"/><path d="M89.911,0.789l7.416,0l0,22.175l9.161,0l0,-22.175l7.416,0l0,51.767l-7.416,0l0,-23.048l-9.161,0l0,23.048l-7.416,0l0,-51.767Z" style="fill-rule:nonzero;"/><path d="M144.876,15.694l-7.416,0l0,-1.672c0,-1.697 -0.4,-3.163 -1.199,-4.399c-0.8,-1.236 -2.145,-1.854 -4.036,-1.854c-1.017,0 -1.854,0.194 -2.508,0.582c-0.654,0.387 -1.163,0.884 -1.527,1.49c-0.363,0.606 -0.618,1.309 -0.763,2.108c-0.146,0.8 -0.218,1.636 -0.218,2.509c0,1.018 0.036,1.878 0.109,2.581c0.073,0.703 0.254,1.309 0.545,1.818c0.291,0.508 0.715,0.957 1.272,1.345c0.558,0.387 1.321,0.775 2.291,1.163l5.671,2.254c1.648,0.63 2.981,1.369 3.999,2.217c1.017,0.848 1.805,1.842 2.362,2.981c0.558,1.139 0.934,2.448 1.127,3.926c0.194,1.479 0.291,3.163 0.291,5.053c0,2.182 -0.218,4.205 -0.654,6.071c-0.436,1.866 -1.151,3.466 -2.145,4.799c-0.994,1.333 -2.314,2.387 -3.962,3.163c-1.648,0.775 -3.66,1.163 -6.035,1.163c-1.793,0 -3.466,-0.315 -5.017,-0.945c-1.551,-0.63 -2.884,-1.491 -3.998,-2.581c-1.115,-1.091 -2,-2.388 -2.654,-3.89c-0.655,-1.503 -0.982,-3.127 -0.982,-4.871l0,-2.763l7.416,0l0,2.326c0,1.358 0.4,2.581 1.2,3.672c0.8,1.091 2.145,1.636 4.035,1.636c1.26,0 2.242,-0.182 2.945,-0.545c0.702,-0.364 1.236,-0.873 1.599,-1.527c0.364,-0.655 0.594,-1.466 0.691,-2.436c0.097,-0.969 0.145,-2.036 0.145,-3.199c0,-1.357 -0.048,-2.472 -0.145,-3.344c-0.097,-0.873 -0.303,-1.576 -0.618,-2.109c-0.315,-0.533 -0.751,-0.969 -1.309,-1.309c-0.557,-0.339 -1.296,-0.702 -2.217,-1.09l-5.308,-2.181c-3.199,-1.309 -5.344,-3.042 -6.434,-5.199c-1.091,-2.157 -1.636,-4.859 -1.636,-8.106c0,-1.939 0.266,-3.781 0.8,-5.526c0.533,-1.745 1.32,-3.248 2.362,-4.508c1.043,-1.26 2.363,-2.266 3.963,-3.017c1.599,-0.751 3.466,-1.127 5.598,-1.127c1.842,0 3.527,0.339 5.053,1.018c1.527,0.678 2.836,1.575 3.926,2.69c1.091,1.115 1.927,2.363 2.509,3.744c0.581,1.382 0.872,2.799 0.872,4.254l0,3.635Z" style="fill-rule:nonzero;"/></g></g></svg>